<svg version="1.1" viewBox="0.0 0.0 1281.249343832021 725.0" fill="none" stroke="none" stroke-linecap="square" stroke-miterlimit="10" xmlns:xlink="http://www.w3.org/1999/xlink" xmlns="http://www.w3.org/2000/svg"><clipPath id="p.0"><path d="m0 0l1281.2494 0l0 725.0l-1281.2494 0l0 -725.0z" clip-rule="nonzero"/></clipPath><g clip-path="url(#p.0)"><path fill="#000000" fill-opacity="0.0" d="m0 0l1281.2494 0l0 725.0l-1281.2494 0z" fill-rule="evenodd"/><path fill="#363d55" d="m-0.005249344 -0.003937008l1281.2599 0l0 725.00793l-1281.2599 0z" fill-rule="evenodd"/><path stroke="#000000" stroke-width="1.0" stroke-linejoin="round" stroke-linecap="butt" d="m-0.005249344 -0.003937008l1281.2599 0l0 725.00793l-1281.2599 0z" fill-rule="evenodd"/><path fill="#000000" fill-opacity="0.0" d="m379.69028 83.43307l550.01575 0l0 276.56693l-550.01575 0z" fill-rule="evenodd"/><path fill="#ffffff" d="m406.42465 180.14494l15.25 0l0 100.468735q0 17.734375 -6.109375 26.5q-6.09375 8.78125 -19.4375 8.78125q-1.53125 0 -2.875 -0.09375q-1.328125 -0.09375 -2.84375 -0.296875l0 -12.953125q5.328125 0 8.46875 -1.625q3.15625 -1.625 4.875 -5.0625q1.71875 -3.421875 2.1875 -8.671875q0.484375 -5.234375 0.484375 -12.296875l0 -94.749985zm-3.25 -28.984375q0 -4.375 2.953125 -7.515625q2.96875 -3.15625 7.53125 -3.15625q4.578125 0 7.8125 3.15625q3.25 3.140625 3.25 7.515625q0 4.390625 -3.25 7.25q-3.234375 2.859375 -7.8125 2.859375q-4.5625 0 -7.53125 -2.859375q-2.953125 -2.859375 -2.953125 -7.25zm120.68643 116.687485q-5.71875 4.578125 -14.3905945 7.25q-8.671875 2.65625 -18.390625 2.65625q-10.875 0 -18.890625 -3.515625q-8.0 -3.53125 -13.15625 -10.109375q-5.140625 -6.578125 -7.625 -15.718735q-2.46875 -9.15625 -2.46875 -20.59375q0 -24.40625 10.859375 -37.171875q10.875 -12.78125 31.078125 -12.78125q6.484375 0 12.96875 1.4375q6.484375 1.421875 11.6249695 5.421875q5.15625 4.0 8.390625 11.34375q3.25 7.34375 3.25 19.34375q0 6.296875 -1.140625 13.921875l-61.203094 0q0 8.390625 1.703125 14.875q1.71875 6.484375 5.34375 10.96875q3.625 4.4687347 9.4375 6.8593597q5.8125 2.375 14.203125 2.375q6.484375 0 12.96875 -2.28125q6.4843445 -2.296875 9.7187195 -5.34375l5.71875 11.0625zm-32.78122 -76.64061q-11.25 0 -18.03125 5.90625q-6.765625 5.90625 -8.09375 20.203125l47.28122 0q0 -14.484375 -5.5312195 -20.296875q-5.53125 -5.8125 -15.625 -5.8125zm63.290863 -11.0625l15.25 0l0 95.32811l-15.25 0l0 -95.32811zm-3.234375 -28.984375q0 -4.375 2.953125 -7.515625q2.953125 -3.15625 7.53125 -3.15625q4.578125 0 7.8125 3.15625q3.234375 3.140625 3.234375 7.515625q0 4.390625 -3.234375 7.25q-3.234375 2.859375 -7.8125 2.859375q-4.578125 0 -7.53125 -2.859375q-2.953125 -2.859375 -2.953125 -7.25zm112.283325 124.312485l0 -54.343735q0 -14.859375 -4.296875 -22.390625q-4.28125 -7.53125 -15.71875 -7.53125q-10.109375 0 -16.6875 5.4375q-6.5625 5.421875 -9.234375 13.625l0 65.20311l-15.25 0l0 -95.32811l10.671875 0l2.859375 11.625l0.765625 0q4.578125 -6.09375 12.296875 -10.0q7.71875 -3.90625 18.390625 -3.90625q7.828125 0 13.734375 1.8125q5.90625 1.796875 9.8125 6.375q3.90625 4.578125 5.90625 12.296875q2.015625 7.71875 2.015625 19.546875l0 57.57811l-15.265625 0zm37.75769 -8.765625q0 -5.15625 2.953125 -8.109375q2.953125 -2.9531097 7.90625 -2.9531097q5.15625 0 8.203125 2.9531097q3.046875 2.953125 3.046875 8.109375q0 4.953125 -3.046875 8.0q-3.046875 3.046875 -8.203125 3.046875q-4.953125 0 -7.90625 -3.046875q-2.953125 -3.046875 -2.953125 -8.0zm49.1911 -86.562485l15.25 0l0 100.468735q0 17.734375 -6.109375 26.5q-6.09375 8.78125 -19.4375 8.78125q-1.53125 0 -2.875 -0.09375q-1.328125 -0.09375 -2.84375 -0.296875l0 -12.953125q5.328125 0 8.46875 -1.625q3.15625 -1.625 4.875 -5.0625q1.71875 -3.421875 2.1875 -8.671875q0.484375 -5.234375 0.484375 -12.296875l0 -94.749985zm-3.25 -28.984375q0 -4.375 2.953125 -7.515625q2.96875 -3.15625 7.53125 -3.15625q4.578125 0 7.8125 3.15625q3.25 3.140625 3.25 7.515625q0 4.390625 -3.25 7.25q-3.234375 2.859375 -7.8125 2.859375q-4.5625 0 -7.53125 -2.859375q-2.953125 -2.859375 -2.953125 -7.25zm93.04584 98.390625q0 -5.734375 -3.4375 -8.96875q-3.421875 -3.234375 -8.484375 -5.421875q-5.046875 -2.203125 -11.0625 -4.203125q-6.0 -2.0 -11.046875 -5.140625q-5.046875 -3.15625 -8.484375 -8.109375q-3.4375 -4.953125 -3.4375 -13.34375q0 -13.734375 7.8125 -20.109375q7.828125 -6.390625 21.75 -6.390625q10.296875 0 17.25 1.8125q6.953125 1.796875 12.109375 4.28125l-3.625 12.578125q-4.390625 -2.09375 -10.59375 -3.703125q-6.1875 -1.625 -13.234375 -1.625q-8.390625 0 -12.3125 2.859375q-3.90625 2.859375 -3.90625 9.90625q0 4.96875 3.4375 7.734375q3.4375 2.75 8.484375 4.953125q5.046875 2.1875 11.046875 4.28125q6.015625 2.09375 11.0625 5.53125q5.0625 3.4375 8.484375 8.6875q3.4375 5.234375 3.4375 13.8125q0 6.09375 -2.0 11.437485q-2.0 5.34375 -6.203125 9.15625q-4.1875 3.8125 -10.390625 6.0q-6.1875 2.1875 -14.578125 2.1875q-10.875 0 -18.5 -2.09375q-7.625 -2.09375 -12.765625 -4.953125l4.578125 -12.96875q4.375 2.484375 11.421875 4.578125q7.0625 2.09375 14.3125 2.09375q8.203125 0 13.53125 -3.234375q5.34375 -3.25 5.34375 -11.624985z" fill-rule="nonzero"/><path fill="#000000" fill-opacity="0.0" d="m1102.5529 59.99732l138.07874 24.440945l-91.14966 514.8976l-138.07867 -24.440918z" fill-rule="evenodd"/><path fill="#1c2237" d="m1131.4044 320.2821l64.29736 11.3811035l-105.38867 260.00146q-18.107788 44.92212 -45.808716 65.42334q-27.700806 20.50122 -67.627075 13.434021q-16.078186 -2.8459473 -31.51355 -9.322998l22.176025 -52.75476q12.787781 3.3266602 22.72345 1.6102905q9.920288 -1.7191162 17.69867 -7.831909q7.7630005 -6.1155396 14.138062 -16.491333q6.3876953 -10.357666 11.974121 -23.808594l97.33032 -241.64062zm22.374634 -71.98323q3.0314941 -17.124374 15.821289 -24.47641q12.807983 -7.3647003 29.932495 -4.333557q16.585815 2.9358215 26.595093 14.33934q10.027222 11.390839 6.9958496 28.515228q-2.9361572 16.585876 -16.313477 24.119537q-13.359375 7.520996 -29.945312 4.5851746q-17.12439 -3.0311584 -26.582275 -14.590973q-9.439819 -11.572479 -6.503662 -28.15834z" fill-rule="nonzero"/><path fill="#000000" fill-opacity="0.0" d="m276.56168 410.937l728.126 0l0 162.48816l-728.126 0z" fill-rule="evenodd"/><path fill="#ffffff" d="m311.77997 458.337l0 -4.0l4.53125 0l0 -20.0l-4.53125 0l0 -4.0l13.359375 0l0 4.0l-4.515625 0l0 20.0l4.515625 0l0 4.0l-13.359375 0zm18.557495 -19.0l-1.515625 -1.84375q1.5625 -0.71875 2.5625 -1.640625q1.0 -0.921875 1.0 -1.59375q0 -0.515625 -0.4375 -0.9375q-0.4375 -0.421875 -0.796875 -0.703125q-0.890625 -0.71875 -1.1875 -1.203125q-0.296875 -0.484375 -0.296875 -1.0q0 -0.953125 0.671875 -1.53125q0.6875 -0.59375 1.765625 -0.59375q1.125 0 2.015625 0.59375q0.90625 0.578125 1.421875 1.578125q0.53125 1.0 0.53125 2.359375q0 1.03125 -0.453125 2.03125q-0.4375 1.0 -1.21875 1.890625q-0.78125 0.875 -1.828125 1.5625q-1.03125 0.671875 -2.234375 1.03125zm8.924347 19.0l0 -21.0l4.15625 0l0 4.484375l-0.75 0.46875q0.3125 -1.03125 1.015625 -1.984375q0.703125 -0.96875 1.71875 -1.703125q1.015625 -0.75 2.1875 -1.1875q1.1875 -0.4375 2.4375 -0.4375q1.796875 0 3.15625 0.609375q1.359375 0.59375 2.234375 1.796875q0.890625 1.1875 1.28125 3.0l-0.640625 -0.171875l0.28125 -0.671875q0.4375 -0.921875 1.21875 -1.734375q0.78125 -0.828125 1.78125 -1.46875q1.0 -0.640625 2.125 -1.0q1.125 -0.359375 2.203125 -0.359375q2.359375 0 3.890625 0.96875q1.546875 0.953125 2.328125 2.921875q0.78125 1.953125 0.78125 4.875l0 12.59375l-4.15625 0l0 -12.359375q0 -1.796875 -0.46875 -2.9375q-0.453125 -1.140625 -1.375 -1.703125q-0.921875 -0.5625 -2.359375 -0.5625q-1.125 0 -2.109375 0.390625q-0.96875 0.375 -1.703125 1.0625q-0.71875 0.671875 -1.125 1.578125q-0.390625 0.890625 -0.390625 1.96875l0 12.5625l-4.15625 0l0 -12.4375q0 -1.640625 -0.484375 -2.78125q-0.46875 -1.140625 -1.390625 -1.734375q-0.921875 -0.609375 -2.25 -0.609375q-1.109375 0 -2.078125 0.390625q-0.953125 0.375 -1.671875 1.03125q-0.71875 0.65625 -1.125 1.5625q-0.40625 0.890625 -0.40625 1.9375l0 12.640625l-4.15625 0zm55.118103 0.40625q-2.640625 0 -4.765625 -0.921875q-2.109375 -0.921875 -3.515625 -2.71875l2.8125 -2.40625q1.1875 1.40625 2.609375 2.03125q1.421875 0.609375 3.21875 0.609375q0.71875 0 1.34375 -0.171875q0.625 -0.1875 1.078125 -0.546875q0.46875 -0.359375 0.703125 -0.859375q0.234375 -0.5 0.234375 -1.109375q0 -1.03125 -0.75 -1.671875q-0.40625 -0.28125 -1.265625 -0.609375q-0.859375 -0.34375 -2.21875 -0.71875q-2.3125 -0.59375 -3.796875 -1.34375q-1.484375 -0.765625 -2.28125 -1.734375q-0.59375 -0.75 -0.875 -1.640625q-0.28125 -0.90625 -0.28125 -2.0q0 -1.3125 0.578125 -2.40625q0.578125 -1.109375 1.59375 -1.921875q1.015625 -0.828125 2.390625 -1.265625q1.390625 -0.4375 2.953125 -0.4375q1.484375 0 2.9375 0.40625q1.46875 0.390625 2.703125 1.15625q1.234375 0.75 2.078125 1.796875l-2.359375 2.59375q-0.765625 -0.75 -1.671875 -1.328125q-0.890625 -0.59375 -1.8125 -0.90625q-0.921875 -0.328125 -1.671875 -0.328125q-0.84375 0 -1.53125 0.171875q-0.671875 0.15625 -1.140625 0.484375q-0.453125 0.3125 -0.703125 0.796875q-0.234375 0.46875 -0.234375 1.078125q0.046875 0.515625 0.265625 0.984375q0.21875 0.453125 0.625 0.765625q0.4375 0.328125 1.3125 0.6875q0.875 0.359375 2.25 0.671875q2.0 0.53125 3.296875 1.15625q1.296875 0.609375 2.0625 1.40625q0.796875 0.765625 1.109375 1.765625q0.328125 1.0 0.328125 2.234375q0 1.796875 -1.03125 3.21875q-1.015625 1.421875 -2.734375 2.234375q-1.71875 0.796875 -3.84375 0.796875zm21.597473 0q-3.078125 0 -5.5 -1.421875q-2.40625 -1.421875 -3.8125 -3.875q-1.40625 -2.46875 -1.40625 -5.625q0 -3.171875 1.40625 -5.625q1.40625 -2.453125 3.8125 -3.875q2.421875 -1.421875 5.5 -1.421875q3.046875 0 5.46875 1.421875q2.421875 1.421875 3.8125 3.875q1.40625 2.453125 1.40625 5.625q0 3.15625 -1.40625 5.625q-1.390625 2.453125 -3.8125 3.875q-2.421875 1.421875 -5.46875 1.421875zm0 -3.765625q1.890625 0 3.359375 -0.9375q1.484375 -0.9375 2.328125 -2.5625q0.84375 -1.625 0.796875 -3.65625q0.046875 -2.078125 -0.796875 -3.703125q-0.84375 -1.625 -2.328125 -2.546875q-1.46875 -0.921875 -3.359375 -0.921875q-1.875 0 -3.375 0.953125q-1.5 0.9375 -2.34375 2.5625q-0.828125 1.609375 -0.796875 3.65625q-0.03125 2.03125 0.796875 3.65625q0.84375 1.625 2.34375 2.5625q1.5 0.9375 3.375 0.9375zm33.362488 3.765625q-2.640625 0 -4.765625 -0.921875q-2.109375 -0.921875 -3.515625 -2.71875l2.8125 -2.40625q1.1875 1.40625 2.609375 2.03125q1.421875 0.609375 3.21875 0.609375q0.71875 0 1.34375 -0.171875q0.625 -0.1875 1.078125 -0.546875q0.46875 -0.359375 0.703125 -0.859375q0.234375 -0.5 0.234375 -1.109375q0 -1.03125 -0.75 -1.671875q-0.40625 -0.28125 -1.265625 -0.609375q-0.859375 -0.34375 -2.21875 -0.71875q-2.3125 -0.59375 -3.796875 -1.34375q-1.484375 -0.765625 -2.28125 -1.734375q-0.59375 -0.75 -0.875 -1.640625q-0.28125 -0.90625 -0.28125 -2.0q0 -1.3125 0.578125 -2.40625q0.578125 -1.109375 1.59375 -1.921875q1.015625 -0.828125 2.390625 -1.265625q1.390625 -0.4375 2.953125 -0.4375q1.484375 0 2.9375 0.40625q1.46875 0.390625 2.703125 1.15625q1.234375 0.75 2.078125 1.796875l-2.359375 2.59375q-0.765625 -0.75 -1.671875 -1.328125q-0.890625 -0.59375 -1.8125 -0.90625q-0.921875 -0.328125 -1.671875 -0.328125q-0.84375 0 -1.53125 0.171875q-0.671875 0.15625 -1.140625 0.484375q-0.453125 0.3125 -0.703125 0.796875q-0.234375 0.46875 -0.234375 1.078125q0.046875 0.515625 0.265625 0.984375q0.21875 0.453125 0.625 0.765625q0.4375 0.328125 1.3125 0.6875q0.875 0.359375 2.25 0.671875q2.0 0.53125 3.296875 1.15625q1.296875 0.609375 2.0625 1.40625q0.796875 0.765625 1.109375 1.765625q0.328125 1.0 0.328125 2.234375q0 1.796875 -1.03125 3.21875q-1.015625 1.421875 -2.734375 2.234375q-1.71875 0.796875 -3.84375 0.796875zm21.597473 0q-3.078125 0 -5.5 -1.421875q-2.40625 -1.421875 -3.8125 -3.875q-1.40625 -2.46875 -1.40625 -5.625q0 -3.171875 1.40625 -5.625q1.40625 -2.453125 3.8125 -3.875q2.421875 -1.421875 5.5 -1.421875q3.046875 0 5.46875 1.421875q2.421875 1.421875 3.8125 3.875q1.40625 2.453125 1.40625 5.625q0 3.15625 -1.40625 5.625q-1.390625 2.453125 -3.8125 3.875q-2.421875 1.421875 -5.46875 1.421875zm0 -3.765625q1.890625 0 3.359375 -0.9375q1.484375 -0.9375 2.328125 -2.5625q0.84375 -1.625 0.796875 -3.65625q0.046875 -2.078125 -0.796875 -3.703125q-0.84375 -1.625 -2.328125 -2.546875q-1.46875 -0.921875 -3.359375 -0.921875q-1.875 0 -3.375 0.953125q-1.5 0.9375 -2.34375 2.5625q-0.828125 1.609375 -0.796875 3.65625q-0.03125 2.03125 0.796875 3.65625q0.84375 1.625 2.34375 2.5625q1.5 0.9375 3.375 0.9375zm15.162476 3.359375l0 -21.0l4.171875 0l0 6.59375l-0.40625 -1.59375q0.4375 -1.515625 1.5 -2.75q1.0625 -1.25 2.4375 -1.96875q1.375 -0.71875 2.859375 -0.71875q0.6875 0 1.296875 0.125q0.625 0.109375 0.984375 0.265625l-1.078125 4.484375q-0.484375 -0.203125 -1.0625 -0.34375q-0.578125 -0.140625 -1.140625 -0.140625q-1.078125 0 -2.0625 0.421875q-0.96875 0.421875 -1.71875 1.171875q-0.734375 0.734375 -1.171875 1.71875q-0.4375 0.96875 -0.4375 2.140625l0 11.59375l-4.171875 0zm16.119995 0l0 -21.0l4.171875 0l0 6.59375l-0.40625 -1.59375q0.4375 -1.515625 1.5 -2.75q1.0625 -1.25 2.4375 -1.96875q1.375 -0.71875 2.8593445 -0.71875q0.6875 0 1.296875 0.125q0.625 0.109375 0.984375 0.265625l-1.078125 4.484375q-0.484375 -0.203125 -1.0625 -0.34375q-0.578125 -0.140625 -1.1405945 -0.140625q-1.078125 0 -2.0625 0.421875q-0.96875 0.421875 -1.71875 1.171875q-0.734375 0.734375 -1.171875 1.71875q-0.4375 0.96875 -0.4375 2.140625l0 11.59375l-4.171875 0zm19.651215 9.203125l4.234375 -9.796875l0.046875 3.28125l-10.484375 -23.6875l4.796875 0l6.5625 15.4375q0.203125 0.40625 0.46875 1.234375q0.28125 0.8125 0.484375 1.609375l-1.03125 0.234375q0.3125 -0.828125 0.609375 -1.671875q0.3125 -0.84375 0.59375 -1.6875l5.46875 -15.15625l4.890625 0l-8.640625 21.0l-3.5625 9.203125l-4.4375 0zm20.349365 -2.046875l-1.515625 -1.84375q1.40625 -0.796875 2.28125 -1.84375q0.875 -1.03125 0.875 -1.78125q0 -0.40625 -0.203125 -0.796875q-0.1875 -0.375 -0.828125 -1.046875q-0.8125 -0.765625 -1.046875 -1.28125q-0.234375 -0.515625 -0.234375 -1.125q0 -0.953125 0.671875 -1.53125q0.6875 -0.59375 1.765625 -0.59375q1.0 0 1.8125 0.59375q0.828125 0.578125 1.28125 1.59375q0.46875 1.015625 0.46875 2.34375q0 1.203125 -0.40625 2.3125q-0.390625 1.125 -1.125 2.078125q-0.71875 0.96875 -1.671875 1.71875q-0.953125 0.765625 -2.125 1.203125zm32.286255 -6.75q-1.359375 0 -2.703125 -0.4375q-1.34375 -0.453125 -2.4375 -1.1875q-1.09375 -0.734375 -1.84375 -1.640625q-0.734375 -0.90625 -0.984375 -1.828125l1.046875 -0.546875l0 5.109375l-4.125 0l0 -29.46875l4.125 0l0 13.390625l-0.640625 -0.359375q0.203125 -0.921875 0.875 -1.78125q0.6875 -0.859375 1.75 -1.546875q1.0625 -0.703125 2.296875 -1.125q1.234375 -0.421875 2.515625 -0.421875q2.84375 0 5.046875 1.40625q2.203125 1.390625 3.46875 3.859375q1.28125 2.453125 1.28125 5.609375q0 3.15625 -1.265625 5.640625q-1.25 2.484375 -3.453125 3.90625q-2.1875 1.421875 -4.953125 1.421875zm-0.6875 -3.765625q1.84375 0 3.28125 -0.9375q1.4375 -0.9375 2.28125 -2.5625q0.84375 -1.625 0.84375 -3.703125q0 -2.03125 -0.828125 -3.65625q-0.8125 -1.625 -2.25 -2.546875q-1.4375 -0.921875 -3.328125 -0.921875q-1.875 0 -3.3125 0.921875q-1.4375 0.921875 -2.28125 2.546875q-0.84375 1.625 -0.84375 3.65625q0 2.078125 0.84375 3.703125q0.84375 1.625 2.28125 2.5625q1.4375 0.9375 3.3125 0.9375zm22.199951 3.765625q-2.234375 0 -3.890625 -1.046875q-1.65625 -1.046875 -2.5625 -2.921875q-0.90625 -1.875 -0.90625 -4.484375l0 -12.953125l4.125 0l0 11.84375q0 1.84375 0.578125 3.1875q0.578125 1.328125 1.671875 2.046875q1.109375 0.71875 2.671875 0.71875q1.15625 0 2.109375 -0.375q0.96875 -0.375 1.671875 -1.046875q0.703125 -0.6875 1.09375 -1.640625q0.40625 -0.96875 0.40625 -2.09375l0 -12.640625l4.109375 0l0 21.0l-4.109375 0l0 -4.40625l0.71875 -0.46875q-0.484375 1.46875 -1.625 2.671875q-1.140625 1.203125 -2.703125 1.90625q-1.546875 0.703125 -3.359375 0.703125zm19.450012 -0.40625l0 -26.359375l4.109375 0l0 26.359375l-4.109375 0zm-4.359375 -17.0l0 -4.0l13.359375 0l0 4.0l-13.359375 0zm30.919312 17.0l0 -26.359375l4.109375 0l0 26.359375l-4.109375 0zm-4.359375 -17.0l0 -4.0l13.359375 0l0 4.0l-13.359375 0zm17.109985 17.0l0 -29.59375l4.125 0l0 12.90625l-0.71875 0.484375q0.40625 -1.390625 1.5625 -2.5625q1.15625 -1.1875 2.75 -1.921875q1.609375 -0.75 3.28125 -0.75q2.40625 0 4.0 0.9375q1.609375 0.9375 2.40625 2.859375q0.796875 1.921875 0.796875 4.84375l0 12.796875l-4.125 0l0 -12.515625q0 -1.796875 -0.484375 -2.984375q-0.46875 -1.1875 -1.46875 -1.71875q-1.0 -0.546875 -2.484375 -0.46875q-1.203125 0 -2.203125 0.390625q-1.0 0.375 -1.734375 1.0625q-0.734375 0.671875 -1.15625 1.578125q-0.421875 0.890625 -0.421875 1.9375l0 12.71875l-2.046875 0q-0.515625 0 -1.03125 0q-0.515625 0 -1.046875 0zm33.612488 0.40625q-3.25 0 -5.75 -1.375q-2.5 -1.390625 -3.921875 -3.78125q-1.421875 -2.40625 -1.421875 -5.53125q0 -2.484375 0.796875 -4.515625q0.8125 -2.046875 2.234375 -3.546875q1.421875 -1.5 3.390625 -2.3125q1.984375 -0.828125 4.296875 -0.828125q2.046875 0 3.796875 0.78125q1.765625 0.78125 3.0625 2.140625q1.3125 1.359375 2.0 3.21875q0.703125 1.859375 0.671875 4.0625l-0.046875 1.765625l-17.15625 0l-0.921875 -3.28125l14.515625 0l-0.59375 0.671875l0 -0.953125q-0.125 -1.328125 -0.890625 -2.359375q-0.75 -1.046875 -1.90625 -1.640625q-1.15625 -0.609375 -2.53125 -0.609375q-2.15625 0 -3.640625 0.828125q-1.46875 0.8125 -2.234375 2.40625q-0.75 1.578125 -0.75 3.890625q0 2.203125 0.90625 3.828125q0.921875 1.609375 2.59375 2.5q1.6875 0.875 3.890625 0.875q1.5625 0 2.890625 -0.515625q1.34375 -0.53125 2.90625 -1.890625l2.078125 2.921875q-0.953125 0.96875 -2.34375 1.6875q-1.375 0.71875 -2.921875 1.140625q-1.53125 0.421875 -3.0 0.421875zm24.827454 8.390625l0 -29.796875l4.171875 0l0 4.796875l-0.640625 -0.359375q0.234375 -1.203125 1.34375 -2.296875q1.125 -1.09375 2.75 -1.796875q1.625 -0.703125 3.34375 -0.703125q2.84375 0 5.03125 1.40625q2.203125 1.390625 3.484375 3.828125q1.28125 2.4375 1.28125 5.609375q0 3.109375 -1.265625 5.578125q-1.25 2.453125 -3.453125 3.875q-2.203125 1.421875 -4.96875 1.421875q-1.828125 0 -3.546875 -0.734375q-1.71875 -0.75 -2.921875 -1.90625q-1.203125 -1.15625 -1.484375 -2.40625l1.046875 -0.546875l0 14.03125l-4.171875 0zm10.40625 -12.234375q1.84375 0 3.28125 -0.921875q1.4375 -0.921875 2.28125 -2.515625q0.84375 -1.609375 0.84375 -3.640625q0 -2.046875 -0.828125 -3.625q-0.8125 -1.578125 -2.265625 -2.5q-1.4375 -0.921875 -3.3125 -0.921875q-1.875 0 -3.328125 0.90625q-1.4375 0.890625 -2.28125 2.5q-0.828125 1.59375 -0.828125 3.640625q0 2.03125 0.828125 3.640625q0.84375 1.59375 2.28125 2.515625q1.453125 0.921875 3.328125 0.921875zm22.911865 3.84375q-2.59375 0 -4.734375 -1.4375q-2.140625 -1.453125 -3.421875 -3.921875q-1.28125 -2.484375 -1.28125 -5.609375q0 -3.15625 1.296875 -5.609375q1.3125 -2.46875 3.53125 -3.859375q2.21875 -1.40625 4.96875 -1.40625q1.640625 0 3.0 0.484375q1.375 0.46875 2.390625 1.328125q1.015625 0.859375 1.671875 1.984375q0.671875 1.125 0.828125 2.40625l-0.921875 -0.328125l0 -5.4375l4.15625 0l0 21.0l-4.15625 0l0 -5.0l0.953125 -0.28125q-0.234375 1.078125 -0.984375 2.109375q-0.734375 1.015625 -1.875 1.8125q-1.140625 0.796875 -2.515625 1.28125q-1.375 0.484375 -2.90625 0.484375zm1.09375 -3.8125q1.875 0 3.3125 -0.90625q1.4375 -0.921875 2.25 -2.546875q0.828125 -1.625 0.828125 -3.703125q0 -2.03125 -0.828125 -3.625q-0.8125 -1.609375 -2.25 -2.53125q-1.4375 -0.921875 -3.3125 -0.921875q-1.84375 0 -3.265625 0.921875q-1.421875 0.921875 -2.25 2.53125q-0.8125 1.59375 -0.8125 3.625q0 2.078125 0.8125 3.703125q0.828125 1.625 2.25 2.546875q1.421875 0.90625 3.265625 0.90625zm25.554382 12.609375q-2.234375 0 -4.46875 -0.703125q-2.21875 -0.703125 -3.578125 -1.8125l1.53125 -3.203125q0.796875 0.59375 1.875 1.046875q1.078125 0.46875 2.28125 0.71875q1.203125 0.265625 2.359375 0.265625q2.203125 0 3.671875 -0.71875q1.484375 -0.71875 2.234375 -2.125q0.765625 -1.390625 0.765625 -3.46875l0 -4.046875l0.453125 0.28125q-0.203125 1.25 -1.3125 2.390625q-1.09375 1.125 -2.734375 1.859375q-1.640625 0.71875 -3.359375 0.71875q-3.0 0 -5.34375 -1.421875q-2.34375 -1.421875 -3.703125 -3.875q-1.359375 -2.46875 -1.359375 -5.625q0 -3.171875 1.34375 -5.625q1.34375 -2.453125 3.671875 -3.875q2.34375 -1.421875 5.265625 -1.421875q1.203125 0 2.3125 0.296875q1.125 0.296875 2.078125 0.84375q0.96875 0.53125 1.734375 1.171875q0.765625 0.640625 1.234375 1.359375q0.484375 0.71875 0.609375 1.359375l-0.890625 0.328125l0 -4.921875l4.125 0l0 19.71875q0 2.515625 -0.75 4.453125q-0.734375 1.953125 -2.140625 3.28125q-1.390625 1.34375 -3.390625 2.046875q-2.0 0.703125 -4.515625 0.703125zm0.15625 -12.609375q1.96875 0 3.484375 -0.90625q1.515625 -0.921875 2.359375 -2.515625q0.84375 -1.609375 0.84375 -3.6875q0 -2.078125 -0.859375 -3.703125q-0.859375 -1.625 -2.359375 -2.546875q-1.5 -0.921875 -3.46875 -0.921875q-1.921875 0 -3.421875 0.953125q-1.5 0.9375 -2.359375 2.5625q-0.859375 1.609375 -0.859375 3.65625q0 2.03125 0.859375 3.65625q0.859375 1.625 2.359375 2.546875q1.5 0.90625 3.421875 0.90625zm26.20996 3.8125q-3.25 0 -5.75 -1.375q-2.5 -1.390625 -3.921875 -3.78125q-1.421875 -2.40625 -1.421875 -5.53125q0 -2.484375 0.796875 -4.515625q0.8125 -2.046875 2.234375 -3.546875q1.421875 -1.5 3.390625 -2.3125q1.984375 -0.828125 4.296875 -0.828125q2.046875 0 3.796875 0.78125q1.765625 0.78125 3.0625 2.140625q1.3125 1.359375 2.0 3.21875q0.703125 1.859375 0.671875 4.0625l-0.046875 1.765625l-17.15625 0l-0.921875 -3.28125l14.515625 0l-0.59375 0.671875l0 -0.953125q-0.125 -1.328125 -0.890625 -2.359375q-0.75 -1.046875 -1.90625 -1.640625q-1.15625 -0.609375 -2.53125 -0.609375q-2.15625 0 -3.640625 0.828125q-1.46875 0.8125 -2.234375 2.40625q-0.75 1.578125 -0.75 3.890625q0 2.203125 0.90625 3.828125q0.921875 1.609375 2.59375 2.5q1.6875 0.875 3.890625 0.875q1.5625 0 2.890625 -0.515625q1.34375 -0.53125 2.90625 -1.890625l2.078125 2.921875q-0.953125 0.96875 -2.34375 1.6875q-1.375 0.71875 -2.921875 1.140625q-1.53125 0.421875 -3.0 0.421875zm29.99939 -0.40625l-7.171875 -21.0l4.171875 -0.046875l5.109375 15.734375l-0.921875 -0.09375l5.5625 -12.28125l2.484375 0l5.59375 12.328125l-1.078125 0.078125l5.15625 -15.71875l4.171875 0l-7.078125 21.0l-2.84375 0l-5.84375 -13.359375l0.921875 0.125l-5.4375 13.234375l-2.796875 0zm34.306152 0.40625q-2.59375 0 -4.734375 -1.4375q-2.140625 -1.453125 -3.421875 -3.921875q-1.28125 -2.484375 -1.28125 -5.609375q0 -3.15625 1.296875 -5.609375q1.3125 -2.46875 3.53125 -3.859375q2.21875 -1.40625 4.96875 -1.40625q1.640625 0 3.0 0.484375q1.375 0.46875 2.390625 1.328125q1.015625 0.859375 1.671875 1.984375q0.671875 1.125 0.828125 2.40625l-0.921875 -0.328125l0 -5.4375l4.15625 0l0 21.0l-4.15625 0l0 -5.0l0.953125 -0.28125q-0.234375 1.078125 -0.984375 2.109375q-0.734375 1.015625 -1.875 1.8125q-1.140625 0.796875 -2.515625 1.28125q-1.375 0.484375 -2.90625 0.484375zm1.09375 -3.8125q1.875 0 3.3125 -0.90625q1.4375 -0.921875 2.25 -2.546875q0.828125 -1.625 0.828125 -3.703125q0 -2.03125 -0.828125 -3.625q-0.8125 -1.609375 -2.25 -2.53125q-1.4375 -0.921875 -3.3125 -0.921875q-1.84375 0 -3.265625 0.921875q-1.421875 0.921875 -2.25 2.53125q-0.8125 1.59375 -0.8125 3.625q0 2.078125 0.8125 3.703125q0.828125 1.625 2.25 2.546875q1.421875 0.90625 3.265625 0.90625zm23.148071 3.8125q-2.640625 0 -4.765625 -0.921875q-2.109375 -0.921875 -3.515625 -2.71875l2.8125 -2.40625q1.1875 1.40625 2.609375 2.03125q1.421875 0.609375 3.21875 0.609375q0.71875 0 1.34375 -0.171875q0.625 -0.1875 1.078125 -0.546875q0.46875 -0.359375 0.703125 -0.859375q0.234375 -0.5 0.234375 -1.109375q0 -1.03125 -0.75 -1.671875q-0.40625 -0.28125 -1.265625 -0.609375q-0.859375 -0.34375 -2.21875 -0.71875q-2.3125 -0.59375 -3.796875 -1.34375q-1.484375 -0.765625 -2.28125 -1.734375q-0.59375 -0.75 -0.875 -1.640625q-0.28125 -0.90625 -0.28125 -2.0q0 -1.3125 0.578125 -2.40625q0.578125 -1.109375 1.59375 -1.921875q1.015625 -0.828125 2.390625 -1.265625q1.390625 -0.4375 2.953125 -0.4375q1.484375 0 2.9375 0.40625q1.46875 0.390625 2.703125 1.15625q1.234375 0.75 2.078125 1.796875l-2.359375 2.59375q-0.765625 -0.75 -1.671875 -1.328125q-0.890625 -0.59375 -1.8125 -0.90625q-0.921875 -0.328125 -1.671875 -0.328125q-0.84375 0 -1.53125 0.171875q-0.671875 0.15625 -1.140625 0.484375q-0.453125 0.3125 -0.703125 0.796875q-0.234375 0.46875 -0.234375 1.078125q0.046875 0.515625 0.265625 0.984375q0.21875 0.453125 0.625 0.765625q0.4375 0.328125 1.3125 0.6875q0.875 0.359375 2.25 0.671875q2.0 0.53125 3.296875 1.15625q1.296875 0.609375 2.0625 1.40625q0.796875 0.765625 1.109375 1.765625q0.328125 1.0 0.328125 2.234375q0 1.796875 -1.03125 3.21875q-1.015625 1.421875 -2.734375 2.234375q-1.71875 0.796875 -3.84375 0.796875zm23.359985 -0.40625l0 -21.0l4.125 0l0 4.3125l-0.71875 0.484375q0.40625 -1.390625 1.5625 -2.5625q1.15625 -1.1875 2.75 -1.921875q1.609375 -0.75 3.28125 -0.75q2.40625 0 4.0 0.9375q1.609375 0.9375 2.40625 2.859375q0.796875 1.921875 0.796875 4.84375l0 12.796875l-4.125 0l0 -12.515625q0 -1.796875 -0.484375 -2.984375q-0.46875 -1.1875 -1.46875 -1.71875q-1.0 -0.546875 -2.484375 -0.46875q-1.203125 0 -2.203125 0.390625q-1.0 0.375 -1.734375 1.0625q-0.734375 0.671875 -1.15625 1.578125q-0.421875 0.890625 -0.421875 1.9375l0 12.71875l-2.046875 0q-0.515625 0 -1.03125 0q-0.515625 0 -1.046875 0zm33.23755 0.40625q-3.078125 0 -5.5 -1.421875q-2.40625 -1.421875 -3.8125 -3.875q-1.40625 -2.46875 -1.40625 -5.625q0 -3.171875 1.40625 -5.625q1.40625 -2.453125 3.8125 -3.875q2.421875 -1.421875 5.5 -1.421875q3.046875 0 5.46875 1.421875q2.421875 1.421875 3.8125 3.875q1.40625 2.453125 1.40625 5.625q0 3.15625 -1.40625 5.625q-1.390625 2.453125 -3.8125 3.875q-2.421875 1.421875 -5.46875 1.421875zm0 -3.765625q1.890625 0 3.359375 -0.9375q1.484375 -0.9375 2.328125 -2.5625q0.84375 -1.625 0.796875 -3.65625q0.046875 -2.078125 -0.796875 -3.703125q-0.84375 -1.625 -2.328125 -2.546875q-1.46875 -0.921875 -3.359375 -0.921875q-1.875 0 -3.375 0.953125q-1.5 0.9375 -2.34375 2.5625q-0.828125 1.609375 -0.796875 3.65625q-0.03125 2.03125 0.796875 3.65625q0.84375 1.625 2.34375 2.5625q1.5 0.9375 3.375 0.9375zm17.77185 3.359375l0 -26.359375l4.109375 0l0 26.359375l-4.109375 0zm-4.359375 -17.0l0 -4.0l13.359375 0l0 4.0l-13.359375 0z" fill-rule="nonzero"/><path fill="#ffffff" d="m584.781 506.337l0 -23.359375q0 -1.796875 0.796875 -3.1875q0.8125 -1.40625 2.203125 -2.203125q1.40625 -0.8125 3.25 -0.8125q1.28125 0 2.390625 0.484375q1.125 0.484375 1.796875 1.28125l-1.390625 3.15625q-0.515625 -0.484375 -1.140625 -0.78125q-0.625 -0.296875 -1.1875 -0.296875q-0.828125 0 -1.421875 0.265625q-0.578125 0.25 -0.859375 0.796875q-0.28125 0.53125 -0.28125 1.296875l0 23.359375l-2.078125 0q-0.515625 0 -1.03125 0q-0.515625 0 -1.046875 0zm-3.359375 -16.84375l0 -3.796875l12.484375 0l0 3.796875l-12.484375 0zm25.435608 17.25q-3.078125 0 -5.5 -1.421875q-2.40625 -1.421875 -3.8125 -3.875q-1.40625 -2.46875 -1.40625 -5.625q0 -3.171875 1.40625 -5.625q1.40625 -2.453125 3.8125 -3.875q2.421875 -1.421875 5.5 -1.421875q3.046875 0 5.46875 1.421875q2.421875 1.421875 3.8125 3.875q1.40625 2.453125 1.40625 5.625q0 3.15625 -1.40625 5.625q-1.390625 2.453125 -3.8125 3.875q-2.421875 1.421875 -5.46875 1.421875zm0 -3.765625q1.890625 0 3.359375 -0.9375q1.484375 -0.9375 2.328125 -2.5625q0.84375 -1.625 0.796875 -3.65625q0.046875 -2.078125 -0.796875 -3.703125q-0.84375 -1.625 -2.328125 -2.546875q-1.46875 -0.921875 -3.359375 -0.921875q-1.875 0 -3.375 0.953125q-1.5 0.9375 -2.34375 2.5625q-0.828125 1.609375 -0.796875 3.65625q-0.03125 2.03125 0.796875 3.65625q0.84375 1.625 2.34375 2.5625q1.5 0.9375 3.375 0.9375zm22.52185 3.765625q-2.234375 0 -3.890625 -1.046875q-1.65625 -1.046875 -2.5625 -2.921875q-0.90625 -1.875 -0.90625 -4.484375l0 -12.953125l4.125 0l0 11.84375q0 1.84375 0.578125 3.1875q0.578125 1.328125 1.671875 2.046875q1.109375 0.71875 2.671875 0.71875q1.15625 0 2.109375 -0.375q0.96875 -0.375 1.671875 -1.046875q0.703125 -0.6875 1.09375 -1.640625q0.40625 -0.96875 0.40625 -2.09375l0 -12.640625l4.109375 0l0 21.0l-4.109375 0l0 -4.40625l0.71875 -0.46875q-0.484375 1.46875 -1.625 2.671875q-1.140625 1.203125 -2.703125 1.90625q-1.546875 0.703125 -3.359375 0.703125zm16.840576 -0.40625l0 -21.0l4.125 0l0 4.3125l-0.71875 0.484375q0.40625 -1.390625 1.5625 -2.5625q1.15625 -1.1875 2.75 -1.921875q1.609375 -0.75 3.28125 -0.75q2.40625 0 4.0 0.9375q1.609375 0.9375 2.40625 2.859375q0.796875 1.921875 0.796875 4.84375l0 12.796875l-4.125 0l0 -12.515625q0 -1.796875 -0.484375 -2.984375q-0.46875 -1.1875 -1.46875 -1.71875q-1.0 -0.546875 -2.484375 -0.46875q-1.203125 0 -2.203125 0.390625q-1.0 0.375 -1.734375 1.0625q-0.734375 0.671875 -1.15625 1.578125q-0.421875 0.890625 -0.421875 1.9375l0 12.71875l-2.046875 0q-0.515625 0 -1.03125 0q-0.515625 0 -1.046875 0zm32.565613 0.40625q-2.875 0 -5.140625 -1.421875q-2.265625 -1.421875 -3.59375 -3.875q-1.3125 -2.46875 -1.3125 -5.625q0 -3.171875 1.296875 -5.625q1.3125 -2.453125 3.546875 -3.875q2.25 -1.421875 5.078125 -1.421875q1.5625 0 3.015625 0.5q1.46875 0.5 2.625 1.359375q1.15625 0.859375 1.8125 1.875q0.671875 1.015625 0.671875 2.0625l-1.203125 0.078125l0 -14.03125l4.125 0l0 29.59375l-4.125 0l0 -5.0l0.796875 0q0 0.953125 -0.640625 1.90625q-0.640625 0.9375 -1.703125 1.734375q-1.046875 0.796875 -2.4375 1.28125q-1.375 0.484375 -2.8125 0.484375zm0.5625 -3.5625q1.875 0 3.3125 -0.953125q1.4375 -0.96875 2.25 -2.625q0.828125 -1.671875 0.828125 -3.78125q0 -2.125 -0.828125 -3.78125q-0.8125 -1.65625 -2.25 -2.609375q-1.4375 -0.96875 -3.3125 -0.96875q-1.890625 0 -3.328125 0.96875q-1.4375 0.953125 -2.265625 2.609375q-0.8125 1.65625 -0.8125 3.78125q0 2.109375 0.8125 3.78125q0.828125 1.65625 2.265625 2.625q1.4375 0.953125 3.328125 0.953125zm17.71936 3.59375q-1.328125 0 -2.046875 -0.78125q-0.71875 -0.78125 -0.71875 -2.21875q0 -1.3125 0.75 -2.15625q0.765625 -0.84375 2.015625 -0.84375q1.3125 0 2.03125 0.78125q0.71875 0.78125 0.71875 2.21875q0 1.328125 -0.765625 2.171875q-0.75 0.828125 -1.984375 0.828125z" fill-rule="nonzero"/><path fill="#ffffff" d="m553.68665 554.337l0 -28.0l17.640625 0l0 4.15625l-13.328125 0l0 19.6875l13.328125 0l0 4.15625l-17.640625 0zm1.953125 -12.28125l0 -4.15625l13.484375 0l0 4.15625l-13.484375 0zm21.559998 12.28125l0 -21.0l4.171875 0l0 6.59375l-0.40625 -1.59375q0.4375 -1.515625 1.5 -2.75q1.0625 -1.25 2.4375 -1.96875q1.375 -0.71875 2.859375 -0.71875q0.6875 0 1.296875 0.125q0.625 0.109375 0.984375 0.265625l-1.078125 4.484375q-0.484375 -0.203125 -1.0625 -0.34375q-0.578125 -0.140625 -1.140625 -0.140625q-1.078125 0 -2.0625 0.421875q-0.96875 0.421875 -1.71875 1.171875q-0.734375 0.734375 -1.171875 1.71875q-0.4375 0.96875 -0.4375 2.140625l0 11.59375l-4.171875 0zm16.119934 0l0 -21.0l4.171875 0l0 6.59375l-0.40625 -1.59375q0.4375 -1.515625 1.5 -2.75q1.0625 -1.25 2.4375 -1.96875q1.375 -0.71875 2.859375 -0.71875q0.6875 0 1.296875 0.125q0.625 0.109375 0.984375 0.265625l-1.078125 4.484375q-0.484375 -0.203125 -1.0625 -0.34375q-0.578125 -0.140625 -1.140625 -0.140625q-1.078125 0 -2.0625 0.421875q-0.96875 0.421875 -1.71875 1.171875q-0.734375 0.734375 -1.171875 1.71875q-0.4375 0.96875 -0.4375 2.140625l0 11.59375l-4.171875 0zm24.67749 0.40625q-3.078125 0 -5.5 -1.421875q-2.40625 -1.421875 -3.8125 -3.875q-1.40625 -2.46875 -1.40625 -5.625q0 -3.171875 1.40625 -5.625q1.40625 -2.453125 3.8125 -3.875q2.421875 -1.421875 5.5 -1.421875q3.046875 0 5.46875 1.421875q2.421875 1.421875 3.8125 3.875q1.40625 2.453125 1.40625 5.625q0 3.15625 -1.40625 5.625q-1.390625 2.453125 -3.8125 3.875q-2.421875 1.421875 -5.46875 1.421875zm0 -3.765625q1.890625 0 3.359375 -0.9375q1.484375 -0.9375 2.328125 -2.5625q0.84375 -1.625 0.796875 -3.65625q0.046875 -2.078125 -0.796875 -3.703125q-0.84375 -1.625 -2.328125 -2.546875q-1.46875 -0.921875 -3.359375 -0.921875q-1.875 0 -3.375 0.953125q-1.5 0.9375 -2.34375 2.5625q-0.828125 1.609375 -0.796875 3.65625q-0.03125 2.03125 0.796875 3.65625q0.84375 1.625 2.34375 2.5625q1.5 0.9375 3.375 0.9375zm15.162476 3.359375l0 -21.0l4.171875 0l0 6.59375l-0.40625 -1.59375q0.4375 -1.515625 1.5 -2.75q1.0625 -1.25 2.4375 -1.96875q1.375 -0.71875 2.859375 -0.71875q0.6875 0 1.296875 0.125q0.625 0.109375 0.984375 0.265625l-1.078125 4.484375q-0.484375 -0.203125 -1.0625 -0.34375q-0.578125 -0.140625 -1.140625 -0.140625q-1.078125 0 -2.0625 0.421875q-0.96875 0.421875 -1.71875 1.171875q-0.734375 0.734375 -1.171875 1.71875q-0.4375 0.96875 -0.4375 2.140625l0 11.59375l-4.171875 0zm38.523132 0l0 -22.5625l1.0 0.25l-9.203125 11.234375l-0.15625 -0.484375l17.40625 0l0 3.96875l-20.078125 0l-1.84375 -3.609375l13.71875 -16.796875l3.3125 0l0 28.0l-4.15625 0zm22.846802 0.40625q-3.203125 0 -5.515625 -1.765625q-2.296875 -1.765625 -3.53125 -4.984375q-1.234375 -3.21875 -1.234375 -7.65625q0 -4.4375 1.234375 -7.65625q1.234375 -3.21875 3.53125 -4.984375q2.3125 -1.765625 5.515625 -1.765625q3.1875 0 5.5 1.765625q2.328125 1.765625 3.5625 4.984375q1.25 3.21875 1.25 7.65625q0 4.4375 -1.25 7.65625q-1.234375 3.21875 -3.5625 4.984375q-2.3125 1.765625 -5.5 1.765625zm0 -3.921875q2.921875 0 4.515625 -2.734375q1.59375 -2.75 1.59375 -7.75q0 -5.0 -1.59375 -7.734375q-1.59375 -2.75 -4.515625 -2.75q-2.921875 0 -4.53125 2.75q-1.59375 2.734375 -1.59375 7.734375q0 5.0 1.59375 7.75q1.609375 2.734375 4.53125 2.734375zm26.233154 3.515625l0 -22.5625l1.0 0.25l-9.203125 11.234375l-0.15625 -0.484375l17.40625 0l0 3.96875l-20.078125 0l-1.84375 -3.609375l13.71875 -16.796875l3.3125 0l0 28.0l-4.15625 0z" fill-rule="nonzero"/></g></svg>
